<svg version="1.0" xmlns="http://www.w3.org/2000/svg" width="493.333" height="493.333" viewBox="0 0 370 370"><path d="M56.7 1.1c-7.1 1-17.5 5.3-25 10.3-8.6 5.7-19.8 18.2-24 26.8C.2 53.6.5 48.5.5 143.5c0 69.2.3 86 1.4 90.5 4.7 18.8 19.6 33.1 41.4 39.9 8.8 2.7 16 3 93.1 3.6l62.9.6 3.2 2.7c1.8 1.5 24.2 21.8 49.9 45.2 25.7 23.4 47.1 42.6 47.6 42.8.6.2 1-16.2 1-45.7 0-25.4.3-46 .8-45.9.4.1 3.7-.1 7.3-.5 14.6-1.6 28.9-8.7 40.4-20.2 6.6-6.6 9-9.7 12.8-17.5 2.5-5.2 5.2-12 5.9-15 1-4.2 1.3-24.7 1.3-86.5v-81l-2.8-8c-7.9-22.4-23.7-38-46.3-45.6L311.9 0 187.2.1c-68.6.1-127.3.5-130.5 1zM306 23.9c11.2 1.1 18.5 4.5 26.8 12.7 9 9 12.4 16.6 13.3 30.4 1 14.3 1 130.9 0 144-1 13.1-3.8 19.4-12.4 28.6-4.4 4.8-8 7.4-13.6 10.2l-7.6 3.7-17.2.3-17.3.4-.1 6.6c-.1 3.7-.5 18-.8 31.9l-.6 25.1-34.3-31.9-34.3-31.8-77.7-.3c-77-.3-77.8-.3-83.4-2.5-10.8-4.1-17.5-10-21.4-18.8-1.6-3.7-1.8-9.9-2.1-74-.2-38.5 0-77.2.4-86.1.8-15.4 1-16.4 4.3-23 4.2-8.6 13.2-17.8 21.5-21.8C54 25.4 57.6 24.5 64 24c11.8-1 231.6-1 242-.1z"/><path d="M121.5 92.7c-22.6.3-24.6.7-27.1 5.5-2.5 4.9-1.8 9.6 2 13.4l3.4 3.4H184c91.8 0 89.2.2 91.9-5.6 2.6-5.8.3-13.3-4.6-15.2-2.7-1.1-99.4-2-149.8-1.5zM122.5 162.9c-7.6 3.2-8.6 15.1-1.6 19.8 2.4 1.7 6.4 1.8 56.1 1.9 29.4.1 57.7-.1 62.7-.5 11.2-.7 13.3-2.2 14.1-9.9.4-4.4.1-5.3-2.6-8.3l-3-3.4-61.9-.2c-34-.1-62.7.2-63.8.6z"/></svg>