<svg version="1.0" xmlns="http://www.w3.org/2000/svg" width="1306.667" height="981.333" viewBox="0 0 980 736" fill="#0096d0"><path d="M891.5.9c-16.1 2.6-31.1 9.3-40.9 18.2-10.7 9.8-82.1 84.7-218.1 228.9-100.4 106.4-207.2 219.3-247.4 261.7l-32.4 34.2-4.9-4.1c-6.7-5.5-61.3-53.7-82.9-73-78.8-70.4-108.1-96.2-131.9-116.1-18-15-23.7-18.1-38.2-21.1-19.2-4-42.4.2-57.7 10.2-7.1 4.7-21 18.6-26.1 26.2-5.3 7.8-8.5 16.5-10.1 27-1.4 10.1-.7 27.1 1.6 36 2 7.9 8.3 20.3 13.1 25.9 8.5 9.8 170.7 156.6 248.9 225.1 51.4 45 56.4 48.7 73 53.1 10.3 2.7 27.8 2.9 37.9.5 9-2.1 21.8-8.2 28.2-13.4 5.6-4.4 64.7-66.2 174.5-182.2 174.8-184.9 365.4-387.7 383.7-408.5 6.9-7.7 13.2-19.6 15.7-29.4 10-39.2-12.6-81.1-50.9-94.8-10.4-3.6-26.7-5.7-35.1-4.4z"/></svg>
