<svg version="1.0" xmlns="http://www.w3.org/2000/svg" width="685.333" height="685.333" viewBox="0 0 514 514"><path d="M128.3 1C94.7 3.9 65.4 17.5 41.5 41.5c-16.2 16.1-26.8 33.2-34 54.9C.2 118.1.5 111.5.5 257s-.3 138.9 7 160.6c7.2 21.7 17.8 38.8 34 54.9 20.9 21 46.2 34.1 75.5 39.2 9.8 1.7 19.2 1.8 140.5 1.8 145 0 138.4.3 160.1-7 21.7-7.2 38.8-17.8 54.9-34 16.2-16.1 26.8-33.2 34-54.9 7.3-21.7 7-15.1 7-160.1 0-121.3-.1-130.7-1.8-140.5-5.1-29.3-18.2-54.6-39.2-75.5-16.1-16.2-33.2-26.8-54.8-34C396.3.3 402.6.6 263 .4c-69-.1-129.6.2-134.7.6zm290.1 70.4c25.8 12.7 31.5 45.9 11.2 66.1-23.8 23.8-64.3 10.6-69.8-22.7-2.8-16.8 6-34.6 21-42.6 8-4.3 12.2-5.2 22-4.8 7.2.3 9.4.9 15.6 4zM278 118.5c38.8 5.8 73.6 28.1 96 61.4 6 9 14.5 27.1 17.5 37.6 17.1 59.2-5.9 121.9-57.4 156.5-9 6-27.1 14.5-37.6 17.5-33.1 9.6-68.5 6.7-99.1-7.9-30.7-14.7-52.3-36.3-67-67-18-37.7-18-81.5 0-119.2 14.7-30.7 36.3-52.3 67-67 24.7-11.8 53.4-16.1 80.6-11.9z"/><path d="M394.9 98.5c-3.5 1.9-6.3 7.9-5.5 11.8.8 4.1 5.2 8.5 9.2 9.3 4.2.8 10-2 11.9-5.7 5.3-10.1-5.6-20.8-15.6-15.4zM235.5 149c-23.2 5-42.4 15.6-58.2 32.3-12.9 13.6-22.1 30-27 48.4-2.4 8.8-2.7 11.5-2.7 27.3s.3 18.5 2.7 27.3c3 11.2 9.5 25.6 15.7 34.7 5.6 8.2 16.7 19.8 24.9 26.1 9.1 6.9 26.7 15.4 38.6 18.6 9.1 2.4 11.6 2.7 27.5 2.7 15.8 0 18.5-.3 27.3-2.7 11.2-3 25.6-9.5 34.7-15.7 8.2-5.6 19.8-16.7 26.1-24.9 6.9-9.1 15.4-26.7 18.6-38.6 2.4-9.1 2.7-11.6 2.7-27.5s-.3-18.4-2.7-27.5c-3.2-11.9-11.7-29.5-18.6-38.6-6.3-8.2-17.9-19.3-26.1-24.9-9.2-6.2-23.6-12.7-34.7-15.7-13.6-3.6-35.7-4.2-48.8-1.3z"/></svg>