<svg version="1.0" xmlns="http://www.w3.org/2000/svg" width="1266.667" height="1308" viewBox="0 0 950 981"><path d="M287.6 3.1c-9.8 3.4-54 31.8-81.6 52.5-58.7 44-81 78.5-81 125.5 0 22.4 4.3 45.5 19 103.6 10.3 40.1 18.5 65.7 41 127.3 41.6 113.8 82.4 185.5 148.1 260.5 23.6 27 64.1 66.4 97.4 95 15.8 13.5 105.2 75 145.5 100 79.2 49.1 124 63.4 165.3 52.5 22.9-6 48.8-21.9 84.2-51.5 29.9-25 62.1-53.9 63.8-57.1 5.6-10.8 6.1-28.3 1.2-44.9-6.8-23.2-26-55-51.4-84.9-33.9-40.1-83.4-83.5-108.1-95-16.3-7.6-37.6 2.4-63.8 29.9-23 24.1-44.8 59-59.8 95.6-2.5 6.3-4.8 11.6-5 11.8-.6.7-23.2-12.7-39.9-23.6C453.4 628.6 367.4 519.4 316.7 388c-10-25.8-23.6-71.1-22.4-74.3.3-.8 2.5-1.8 4.9-2.2 2.4-.4 12.5-2.9 22.5-5.6 70.1-18.8 116-43.2 128.4-68.5 3.1-6.2 3.4-7.6 3.3-15.4-.1-8.3-.2-8.9-8.1-27.5-37.1-87.3-65.2-136.6-95.5-167.7C328.5 5 306.5-3.4 287.6 3.1zM444.6 33.2c-8.3.5-15.2 1-15.3 1.2-.2.2 2.3 4.6 5.5 9.8 6.3 9.9 19.5 33.2 23.2 40.9l2.3 4.6 23.6.6c26.3.7 36.5 1.6 59.1 5.3 169.9 27.7 306.7 159.9 340.5 328.9 4.4 22.1 6.3 37.3 7.7 62.2 2.3 41.8-3.2 91.4-14.6 131.1-2 6.8-3.6 12.9-3.6 13.6 0 .7 5.4 7.8 12 15.7 6.6 7.9 15.8 19.7 20.3 26.1 4.5 6.4 8.5 11.7 8.8 11.7 1.7.2 15.2-39.9 20.4-60.4 10.4-40.5 14.5-74 14.5-118 0-54.6-7.1-98.6-24-149.5-28.9-86.8-82-163-154-220.7-16.3-13.1-42.6-31.2-59.5-40.9-81.1-46.5-172.3-67.8-266.9-62.2z"/><path d="M69.2 261.7C32.4 323.5 11.8 384.3 3.5 456c-2.3 19-3.1 62.7-1.6 83 4.7 63.6 20 120.2 47.6 176.5 32.7 66.7 80.6 124.6 140.4 169.9 109.7 83.1 253 114.3 387 84.4 14.4-3.2 35.8-8.9 40.6-10.8l3-1.2-9-4.2c-12.3-5.8-30.9-16-49.7-27.3-8.7-5.2-16.1-9.2-16.6-8.9-.4.2-8.8 1.5-18.7 2.8-15.6 2-22.4 2.3-50.5 2.3-33.1 0-42.3-.6-67-4.6-85.5-13.6-165.1-54.2-227.1-115.9-59.7-59.3-98.7-131.6-115.4-213.9-9.4-46.4-10.5-97.7-3-146.3 5-32.2 15.1-67.6 27.8-97.2l5.5-12.7-6.3-24.7c-3.5-13.6-8-31.9-10-40.7-2-8.8-3.8-16.1-4-16.3-.1-.2-3.4 5-7.3 11.5z"/></svg>