<svg version="1.0" xmlns="http://www.w3.org/2000/svg" width="1306.667" height="1245.333" viewBox="0 0 980 934" fill="#0096d0"><path d="M413.4 154c-53.6 111.1-74.5 153.4-75.9 154-1.1.4-76.7 11.1-168 23.9C78.2 344.7 2.8 355.4 2 355.6c-.9.3 42.4 44.3 120.2 122.2l121.6 121.7-28.9 165c-15.9 90.7-28.8 165.7-28.7 166.6.2 1.2 38.8-18.7 150.8-77.7l150.5-79.2 14 7.4c7.7 4 75.4 39.7 150.5 79.3 75.1 39.5 136.6 71.6 136.8 71.2.2-.5-49.4-319.9-52.1-335.8-.3-1.8 21.7-23.8 121-120.9 66.8-65.3 121-119 120.6-119.4-.4-.4-77.7-11.3-171.7-24.4-94.1-13-171-23.7-171.1-23.9-.1-.1-33.1-68.6-73.5-152.2C521.7 71.9 488.4 2.9 488.1 2.2c-.5-.8-30.8 61-74.7 151.8z"/></svg>
