<svg version="1.0" xmlns="http://www.w3.org/2000/svg" width="1306.667" height="1306.667" viewBox="0 0 980 980" fill="#eb4f43"><path d="M55.5 2c-6 .5-13.4 1.3-16.3 2C27.6 6.6 12.5 20.5 4.5 36.1l-4.6 9 .6 164.7c.7 169 1.6 238.1 3.6 251.1.6 4.1 2 9.5 3.2 12 3.2 6.8 43.8 47.9 229.2 231.9C451.3 918 501.6 967.2 511.1 973.6c5.8 3.9 16.4 5.6 31.4 5.1 21.5-.7 18.4 1.2 56.3-35.6 46.3-45 305.7-307.3 346.2-350.2 23.5-24.9 27.5-29.7 31.2-37.5 3-6.3 3.3-7.9 3.6-18.9.5-13.5-1.1-21.9-5.3-29.1-4.3-7.3-20.4-24.3-78.5-82.8C833 361.2 589.6 120 533 64.9c-50.7-49.4-59.5-57.6-66.2-61L461.1 1l-197.3.2c-108.5 0-202.2.4-208.3.8zm405.9 48.7C476.1 65 871.5 457.3 907.6 493.4c29.3 29.3 34.4 35.2 34.4 39.5 0 5.4-7.3 13.1-134.4 142.1-193.7 196.5-265.5 268-269.1 268-4 0-21.3-17-281.8-275.8L41 452.7l.2-202.8c.2-111.5.6-203 1-203.4 3.5-3.6 48.7-4.6 228.3-5.4 89.1-.4 166-.8 170.9-.9l9-.2 11 10.7z"/><path d="M208.1 129.5c-24 5.3-44.6 17.3-57.8 33.9-31.4 39.5-28.5 99.4 6.6 134.7 28.6 28.7 76.8 35.8 115.7 16.9 32.2-15.6 50.3-43.9 52.1-81.7 2.1-43.3-17.5-78.7-52.9-95.3-18.3-8.6-46.1-12.3-63.7-8.5zm35.8 39.4c16.2 5.6 34 22.7 40.2 39 3.4 8.6 3.8 25.6 1 34.9-4.7 15.4-18.5 30.8-35 39l-9.4 4.7h-12.6c-9.6 0-13.9-.5-18.1-1.9-8.2-2.8-16.3-8-23.9-15.5-13.3-13.1-17.1-21.3-17.8-38.6-.9-19.1 2.6-29.7 13.8-41.9 18-19.6 40.6-26.8 61.8-19.7zM523.4 313.9c-13.1 2.1-31.3 10.4-44.2 20.1-19.3 14.5-33.1 35.2-39.9 59.6-2.5 9.1-2.8 11.4-2.8 27.4 0 17.2.1 17.7 3.3 27 8.8 25.4 25.5 41.9 48.6 48.2 9.4 2.6 33.7 3.5 44.3 1.8 9.8-1.5 22.6-6 32.3-11.2 22.8-12.2 42-33.7 50.8-57.1 5.7-15.2 7.5-25.9 6.9-42.2-.4-12.2-.8-15.2-3.5-23.5-4.3-12.9-9.2-21-18.7-30.5-8.8-8.8-17.6-14.5-27.5-17.6-5.5-1.8-9.5-2.2-25.5-2.5-10.4-.1-21.3.1-24.1.5zm31 37.8c10.6 3.1 22.4 13.5 27.4 24 2.4 5.2 2.7 6.9 2.7 16.8 0 9.6-.3 11.8-2.6 17.3-4.4 10.2-8.9 16.9-18.2 26.8-13.6 14.4-26.5 22-41.6 24.6-17.9 3.1-35.8-6.6-44.3-24-3.1-6.3-3.3-7.3-3.3-17.7 0-9.8.3-11.7 2.9-18 5.7-14 18.9-30.6 31.5-39.6 5.7-4.1 17.1-9.4 24.1-11.3 6.1-1.7 13.1-1.3 21.4 1.1zM722.5 490.1c-32.4 4.9-101.6 15.6-138.5 21.5-149 23.8-257.9 41.7-260.9 43-13.9 5.8-16.9 25.4-5.3 34.2 3.4 2.5 4.2 2.7 13.6 2.6 13-.1 59.7-7.1 223.1-33.4 23.7-3.8 77-12.4 118.5-19l75.5-12.1 3.3-3.7c4.9-5.5 7.2-10.6 7.2-15.6 0-5.8-1.4-9.3-5.3-13.5-6.3-6.6-10.1-7.1-31.2-4zM541.5 586.1c-26.9 5.3-57.5 24.8-70.7 45-14.6 22.2-21.4 48.9-18.8 72.8 3.7 34 21.6 56 53.5 65.7 8.2 2.5 10.4 2.8 24.5 2.7 13.7 0 16.7-.3 25.5-2.7 12.3-3.3 23.4-8.1 33.4-14.3 10-6.2 26.3-22.4 32.5-32.5 15.2-24.6 21-55.8 15-80.8-2.2-9.2-10.4-25.5-15.9-31.8-10.2-11.4-24.2-19.6-39-22.7-9.5-2-33-2.8-40-1.4zm36.1 41.1c6.9 3.6 15 12.7 19.3 21.8 3.3 7 3.6 8.1 3.4 16.1-.3 16-6.7 30.1-20.3 44.3-15.8 16.6-31.3 24.6-48.1 24.8-8.6 0-14.7-1.4-20.7-4.8-21.8-12.7-28-39.7-14.5-63.4 10-17.6 28.8-34.6 44.7-40.2 4.1-1.5 7.5-1.8 18.1-1.5 11.8.2 13.5.5 18.1 2.9z"/></svg>
