<svg version="1.0" xmlns="http://www.w3.org/2000/svg" width="2133.333" height="2133.333" viewBox="0 0 1600 1600"><path d="M202.5 403.6c-3.3.8-9.4 3.1-13.5 5.1-7.1 3.5-10.1 6.3-60.3 56.2-35 34.8-54.3 54.8-57.2 59.1-14.4 21.6-13.6 51.2 2.1 71.6 3 3.8 536.5 534.6 667.4 663.9 19.3 19.1 23.5 22.8 29.6 25.8 11.1 5.6 17.5 7.1 29.4 7.1 11.9 0 18.3-1.5 29.4-7.1 6.1-3 10.4-6.8 30.6-26.8 107.6-106.3 661.4-656.9 664.8-660.9 8.3-9.9 14.2-26.4 14.2-39.8 0-8.5-2.6-18.6-7.1-27.8-4.1-8.4-4.6-8.9-58.3-62.6-59.5-59.6-59.3-59.4-75.6-63.5-10.5-2.7-25.2-2.3-35 .9-14.9 4.9-13.9 4-105 93.7-77 75.8-457.5 448-458 448S588.4 740 311.4 468.5c-58.3-57.1-60.7-59.2-74.4-63.7-8.5-2.8-25.9-3.4-34.5-1.2z"/></svg>