<svg version="1.0" xmlns="http://www.w3.org/2000/svg" width="2866.667" height="1629.333" viewBox="0 0 2150 1222"><path d="M1853 .6c-27.5 5.1-47.1 14.8-65.3 32.3-21.8 21-33.7 49.4-33.7 80.5 0 31.7 11.1 59.1 32.4 80.1 17.1 16.8 39.8 27.9 64.5 31.6 13.3 1.9 38.4.7 50.4-2.4 35.2-9.2 65.6-35 78.3-66.2 6.9-16.8 7.8-21.9 7.8-44 .1-18.8-.1-20.6-2.6-29.8-11.1-39.6-41-68.7-81.5-79.4-8.6-2.2-12.1-2.6-28.8-2.9-10.4-.1-20.1 0-21.5.2zm26.5 54.4c26.2 3.7 45.5 28.3 45.5 58 0 26.6-15 48.8-37.9 56.1-9.3 3-23.2 3-32.1-.1-23.6-7.9-38.1-28.6-38.3-54.5-.2-30.5 18.5-54.9 45.6-59.4 7.2-1.2 9.2-1.2 17.2-.1zM669.3 131.1c-63.9 4-121.9 36.8-144.2 81.5-8 16-11.5 30.7-11.6 48.9v12l59.6.3 59.6.2.6-6c2-22.7 25.9-41.2 55.2-42.7 30.2-1.6 51.4 11.3 61.3 37.5 2.3 6 2.6 8.2 2.6 20.7.1 15.7-1.3 22.5-6.6 33.5-4.2 8.8-15.9 20.4-24.9 24.8-12.6 6.1-15.7 6.5-56.1 6.9l-36.8.5V440h30.8c42.6 0 55.4 1.8 70.5 9.7C750.7 461 761 481 761 511.4c0 19.8-4.5 31.3-17.5 44.3-13.8 13.8-28.8 19.5-51.5 19.5-22.6-.1-41.4-8.4-54.5-24.1-6.9-8.4-12.4-22.5-12.5-31.9V516H505v11.2c0 39.2 15.1 73 42.7 96.1 30.7 25.6 72.3 41.8 117.3 45.8 16.3 1.4 46.6.7 63.5-1.6 66.5-8.9 119.5-41.9 141.4-88 7.7-16 11.4-30.5 13.1-51.3 3.8-44.1-11.1-82.5-42-108.5-10.8-9.2-18.6-14.1-32.7-20.9l-12.4-6.1 9.6-5.1c27.5-14.6 50.7-39.2 61.5-65.3 6.6-15.9 7.4-20.6 7.4-44.3 0-18.6-.3-22.9-2.3-32-7.6-35.3-25.7-61.9-56-82.2-29.8-19.9-64.7-30.2-111.4-32.8-18.8-1-17.8-1.1-35.4.1zM1125 130.7c-60.8 2.6-110.2 23.8-148.7 63.6-29.6 30.7-46.7 67.2-53.8 115-2.5 16.2-3.5 44.6-3.5 97.2.1 73 1.5 94.3 8.5 122 14 55.7 47 98.4 94.5 122.1 37.1 18.6 86.4 24.2 132.9 15.3 60.9-11.8 112.5-57.5 131.4-116.4 7.1-22.1 8.2-30.5 8.2-62.5 0-22.9-.4-30.7-1.8-39.5-3.9-23.6-9.3-40.7-18.8-60-12.1-24.7-28.3-44-47.6-56.8-23.3-15.6-46.8-22-80.3-21.9-40.3 0-73.7 11.1-95.7 31.8-4.2 4-5.3 4.6-5.7 3.2-.9-3.5 1.4-29.9 3.4-39.9 8.2-40 33.7-67.6 69.4-75 10.5-2.2 31.8-2.5 47.4-.8 11.4 1.2 31.9 5.6 48.7 10.4 6.6 1.8 12.2 3.2 12.4 3 .5-.5 20.1-86.5 20.1-88.1 0-2.9-41.7-15.9-62.3-19.4-10.7-1.8-42-4.2-49.2-3.8-1.6.1-5.9.3-9.5.5zm5.3 275.1c26.2 9.5 42.7 41.6 42.7 83.2 0 36-17 70.5-40.1 81.4-20.8 9.9-45.3 5.1-62.1-12.1-10.4-10.7-17.4-24.1-22.3-42.5-4.5-16.9-5.6-27.6-6.2-58.4l-.6-29 5.9-5.2c10.3-9.2 28.5-16.8 45.9-19.1 11.6-1.6 30-.7 36.8 1.7zM1495.5 130.6c-50.3 2.9-87.3 18.7-117.6 50.2-28.6 29.6-43.3 64.6-51 121.2-1.7 12-2.4 163.6-1 183 5.7 74.5 30.8 124.7 78.1 156.5 30.2 20.2 67.6 29.7 112 28.2 33.9-1.2 60.8-8.2 86.2-22.4 18.2-10.3 38.3-28.5 50.6-45.8 13.2-18.6 25.1-47 30.6-73.2 5.9-28.2 5.9-27.6 6.3-120.8.5-93.8.1-102-5.3-129.8-10.3-52.9-34.9-93-72.4-118-23.3-15.4-48.6-24.5-77-27.6-11.3-1.2-31.1-2-39.5-1.5zm22.6 95.4c9.3 1.7 18.9 7.2 26 14.8 10.2 10.7 16 23.5 19.8 43.6 3.9 20.3 4.3 31.3 3.9 124.1-.5 95.7-.5 96.9-6 118-2.6 10.3-9.4 24.6-14.7 31.2-8.8 10.9-22.8 17.4-38.1 17.6-16.1.2-29-5.1-38.9-15.9-9.8-10.8-15.6-24.3-19.2-45.3-3.6-21.2-4.1-37.1-3.6-124.1.4-90.3.6-93.3 6.2-115.6 6.6-26.2 21-43.2 40.8-48 6.5-1.5 16.7-1.7 23.8-.4z"/><path d="M376.5 302.4C153.4 383 18.9 497.5 1.6 621.9c-2 14.3-2.1 43.1-.1 57 13.4 94 90.7 182.7 225 258.1 169 94.9 421.7 160.2 692.5 178.9 15.7 1.1 33.1 2.3 38.8 2.7l10.2.6v40.7c0 38.6.1 40.8 2.1 45.1 5.9 13.2 22.2 20.3 35.5 15.6 5.4-1.9 228.1-124.1 232.4-127.5 1.9-1.5 4.9-5 6.5-7.6 2.8-4.5 3-5.5 3-14.4 0-11-1.5-15.1-7.5-21.1-4.7-4.6-230.5-128.4-237.3-130.1-12.3-3-26.3 3.6-32.1 15.3l-2.6 5.2v78.6h-5.2c-15.2 0-92.8-6.7-133.8-11.6-163.1-19.2-314.3-56.8-434.5-108-28.1-12-74.2-34.9-96.5-48C195.3 791.2 135.5 723.1 120.9 650c-3.1-15.5-3.4-44.3-.5-59.5 7.9-42.2 28.8-79.3 66.1-117.4 49.8-50.9 118.9-93.6 214-132.2 20-8.2 25.7-11.7 28.1-17.5 1.8-4.3 1.8-12.5 0-16.7-1.7-4.3-8.5-10.1-13.5-11.5-8.7-2.7-14.1-1.7-38.6 7.2zM1780.5 326.4c-12.8 5.9-17.3 20.2-9.8 31.1 2.5 3.6 5.8 5.5 29.8 17.5 88.9 44.5 148.3 89.2 187.6 141.2 59.7 79.2 58.1 163.7-4.6 242.4-16.2 20.3-44.9 47-71.5 66.8-114 84.3-305.3 149-528 178.6-20.6 2.7-24.3 3.6-32.3 7.8-30 15.5-35.8 56.5-11.3 80 9.6 9.2 21.4 14.2 33.6 14.2 5.9 0 39.9-4.2 69.1-8.5 231.8-34.3 429.6-103 556-193.1 43.9-31.3 77.6-63.5 103-98.4 46.8-64.1 59.8-134.6 37.4-202.5-27.2-82.6-104.6-160-226.5-226.2-29.2-15.9-71.4-35.8-102.6-48.4-14.5-5.9-21.5-6.5-29.9-2.5z"/></svg>