<?xml version="1.0" standalone="no"?>
<!DOCTYPE svg PUBLIC "-//W3C//DTD SVG 20010904//EN"
 "http://www.w3.org/TR/2001/REC-SVG-20010904/DTD/svg10.dtd">
<svg version="1.0" xmlns="http://www.w3.org/2000/svg"
 width="370.000000pt" height="370.000000pt" viewBox="0 0 370.000000 370.000000"
 preserveAspectRatio="xMidYMid meet">

<g transform="translate(0.000000,370.000000) scale(0.100000,-0.100000)"
fill="#000000" stroke="none">
<path d="M567 3689 c-71 -10 -175 -53 -250 -103 -86 -57 -198 -182 -240 -268
-75 -154 -72 -103 -72 -1053 0 -692 3 -860 14 -905 47 -188 196 -331 414 -399
88 -27 160 -30 931 -36 l629 -6 32 -27 c18 -15 242 -218 499 -452 257 -234
471 -426 476 -428 6 -2 10 162 10 457 0 254 3 460 8 459 4 -1 37 1 73 5 146
16 289 87 404 202 66 66 90 97 128 175 25 52 52 120 59 150 10 42 13 247 13
865 l0 810 -28 80 c-79 224 -237 380 -463 456 l-85 29 -1247 -1 c-686 -1
-1273 -5 -1305 -10z m2493 -228 c112 -11 185 -45 268 -127 90 -90 124 -166
133 -304 10 -143 10 -1309 0 -1440 -10 -131 -38 -194 -124 -286 -44 -48 -80
-74 -136 -102 l-76 -37 -172 -3 -173 -4 -1 -66 c-1 -37 -5 -180 -8 -319 l-6
-251 -343 319 -343 318 -777 3 c-770 3 -778 3 -834 25 -108 41 -175 100 -214
188 -16 37 -18 99 -21 740 -2 385 0 772 4 861 8 154 10 164 43 230 42 86 132
178 215 218 45 22 81 31 145 36 118 10 2316 10 2420 1z"/>
<path d="M1215 2773 c-226 -3 -246 -7 -271 -55 -25 -49 -18 -96 20 -134 l34
-34 842 0 c918 0 892 -2 919 56 26 58 3 133 -46 152 -27 11 -994 20 -1498 15z"/>
<path d="M1225 2071 c-76 -32 -86 -151 -16 -198 24 -17 64 -18 561 -19 294 -1
577 1 627 5 112 7 133 22 141 99 4 44 1 53 -26 83 l-30 34 -619 2 c-340 1
-627 -2 -638 -6z"/>
</g>
</svg>
