<?xml version="1.0" standalone="no"?>
<!DOCTYPE svg PUBLIC "-//W3C//DTD SVG 20010904//EN"
 "http://www.w3.org/TR/2001/REC-SVG-20010904/DTD/svg10.dtd">
<svg version="1.0" xmlns="http://www.w3.org/2000/svg"
 width="514.000000pt" height="514.000000pt" viewBox="0 0 514.000000 514.000000"
 preserveAspectRatio="xMidYMid meet">

<g transform="translate(0.000000,514.000000) scale(0.100000,-0.100000)"
fill="#000000" stroke="none">
<path d="M1283 5130 c-336 -29 -629 -165 -868 -405 -162 -161 -268 -332 -340
-549 -73 -217 -70 -151 -70 -1606 0 -1455 -3 -1389 70 -1606 72 -217 178 -388
340 -549 209 -210 462 -341 755 -392 98 -17 192 -18 1405 -18 1450 0 1384 -3
1601 70 217 72 388 178 549 340 162 161 268 332 340 549 73 217 70 151 70
1601 0 1213 -1 1307 -18 1405 -51 293 -182 546 -392 755 -161 162 -332 268
-548 340 -214 72 -151 69 -1547 71 -690 1 -1296 -2 -1347 -6z m2901 -704 c258
-127 315 -459 112 -661 -238 -238 -643 -106 -698 227 -28 168 60 346 210 426
80 43 122 52 220 48 72 -3 94 -9 156 -40z m-1404 -471 c388 -58 736 -281 960
-614 60 -90 145 -271 175 -376 171 -592 -59 -1219 -574 -1565 -90 -60 -271
-145 -376 -175 -331 -96 -685 -67 -991 79 -307 147 -523 363 -670 670 -180
377 -180 815 0 1192 147 307 363 523 670 670 247 118 534 161 806 119z"/>
<path d="M3949 4155 c-35 -19 -63 -79 -55 -118 8 -41 52 -85 92 -93 42 -8 100
20 119 57 53 101 -56 208 -156 154z"/>
<path d="M2355 3650 c-232 -50 -424 -156 -582 -323 -129 -136 -221 -300 -270
-484 -24 -88 -27 -115 -27 -273 0 -158 3 -185 27 -273 30 -112 95 -256 157
-347 56 -82 167 -198 249 -261 91 -69 267 -154 386 -186 91 -24 116 -27 275
-27 158 0 185 3 273 27 112 30 256 95 347 157 82 56 198 167 261 249 69 91
154 267 186 386 24 91 27 116 27 275 0 159 -3 184 -27 275 -32 119 -117 295
-186 386 -63 82 -179 193 -261 249 -92 62 -236 127 -347 157 -136 36 -357 42
-488 13z"/>
</g>
</svg>
