<?xml version="1.0" standalone="no"?>
<!DOCTYPE svg PUBLIC "-//W3C//DTD SVG 20010904//EN"
 "http://www.w3.org/TR/2001/REC-SVG-20010904/DTD/svg10.dtd">
<svg version="1.0" xmlns="http://www.w3.org/2000/svg"
 width="980.000000pt" height="980.000000pt" viewBox="0 0 980.000000 980.000000"
 preserveAspectRatio="xMidYMid meet">
<metadata>
Created by potrace 1.16, written by Peter Selinger 2001-2019
</metadata>
<g transform="translate(0.000000,980.000000) scale(0.100000,-0.100000)"
fill="#000000" stroke="none">
<path d="M4560 9789 c-1035 -75 -1998 -463 -2800 -1128 -150 -123 -501 -475
-622 -621 -881 -1068 -1270 -2403 -1098 -3765 119 -934 501 -1801 1124 -2545
98 -117 370 -393 496 -504 1310 -1150 3104 -1521 4760 -984 1113 361 2076
1130 2686 2144 503 838 746 1840 684 2819 -70 1095 -490 2107 -1215 2935 -146
166 -427 434 -599 573 -756 605 -1611 958 -2576 1062 -174 19 -664 27 -840 14z
m860 -453 c1025 -130 1933 -574 2648 -1295 719 -725 1160 -1655 1274 -2686 18
-161 18 -749 0 -910 -21 -189 -68 -451 -112 -628 -428 -1713 -1848 -3026
-3585 -3317 -286 -48 -384 -55 -755 -55 -376 1 -486 10 -795 65 -1191 216
-2258 925 -2928 1946 -382 582 -615 1222 -704 1934 -26 209 -26 811 0 1020 92
735 334 1386 740 1988 425 632 1019 1153 1706 1497 460 230 986 386 1481 439
80 9 161 18 180 20 93 10 732 -3 850 -18z"/>
<path d="M4650 7644 c-595 -71 -1142 -415 -1474 -925 -171 -264 -283 -585
-317 -909 -14 -138 -7 -395 16 -530 33 -200 106 -424 199 -607 20 -40 36 -74
36 -77 0 -2 -30 -26 -67 -52 -261 -186 -538 -469 -734 -749 -163 -232 -339
-586 -404 -808 -21 -74 -14 -129 24 -189 62 -98 195 -125 297 -62 54 34 78 72
130 219 87 241 276 566 451 775 112 133 320 332 448 428 l108 81 104 -99 c501
-478 1159 -676 1820 -549 391 75 750 263 1045 548 l104 100 110 -82 c121 -90
389 -351 480 -467 165 -210 343 -526 429 -765 49 -134 72 -167 140 -200 64
-32 133 -32 199 0 72 34 125 137 112 218 -9 55 -88 260 -156 403 -216 456
-564 881 -964 1176 -45 33 -85 63 -89 68 -5 4 10 44 32 88 93 184 162 398 196
602 23 134 30 392 16 529 -65 624 -407 1184 -931 1524 -395 256 -885 368
-1360 311z m573 -453 c424 -91 783 -333 1019 -685 201 -301 300 -676 269
-1023 -32 -354 -149 -640 -372 -908 -387 -463 -995 -673 -1580 -545 -613 133
-1106 625 -1238 1233 -93 429 -8 877 237 1242 237 354 609 603 1019 685 145
29 142 28 353 25 154 -2 216 -7 293 -24z"/>
</g>
</svg>
