<svg version="1.0" xmlns="http://www.w3.org/2000/svg" width="1306.667" height="1306.667" viewBox="0 0 980 980"><path d="M456 1.1C352.5 8.6 256.2 47.4 176 113.9c-15 12.3-50.1 47.5-62.2 62.1C25.7 282.8-13.2 416.3 4 552.5 15.9 645.9 54.1 732.6 116.4 807c9.8 11.7 37 39.3 49.6 50.4 131 115 310.4 152.1 476 98.4 111.3-36.1 207.6-113 268.6-214.4 50.3-83.8 74.6-184 68.4-281.9C972 350 930 248.8 857.5 166c-14.6-16.6-42.7-43.4-59.9-57.3C722 48.2 636.5 12.9 540 2.5 522.6.6 473.6-.2 456 1.1zm86 45.3c102.5 13 193.3 57.4 264.8 129.5 71.9 72.5 116 165.5 127.4 268.6 1.8 16.1 1.8 74.9 0 91-2.1 18.9-6.8 45.1-11.2 62.8C880.2 769.6 738.2 900.9 564.5 930c-28.6 4.8-38.4 5.5-75.5 5.5-37.6-.1-48.6-1-79.5-6.5-119.1-21.6-225.8-92.5-292.8-194.6C78.5 676.2 55.2 612.2 46.3 541c-2.6-20.9-2.6-81.1 0-102 9.2-73.5 33.4-138.6 74-198.8C162.8 177 222.2 124.9 290.9 90.5c46-23 98.6-38.6 148.1-43.9 8-.9 16.1-1.8 18-2 9.3-1 73.2.3 85 1.8z"/><path d="M465 215.6c-59.5 7.1-114.2 41.5-147.4 92.5-17.1 26.4-28.3 58.5-31.7 90.9-1.4 13.8-.7 39.5 1.6 53 3.3 20 10.6 42.4 19.9 60.7 2 4 3.6 7.4 3.6 7.7 0 .2-3 2.6-6.7 5.2-26.1 18.6-53.8 46.9-73.4 74.9-16.3 23.2-33.9 58.6-40.4 80.8-2.1 7.4-1.4 12.9 2.4 18.9 6.2 9.8 19.5 12.5 29.7 6.2 5.4-3.4 7.8-7.2 13-21.9 8.7-24.1 27.6-56.6 45.1-77.5 11.2-13.3 32-33.2 44.8-42.8l10.8-8.1 10.4 9.9c50.1 47.8 115.9 67.6 182 54.9 39.1-7.5 75-26.3 104.5-54.8l10.4-10 11 8.2c12.1 9 38.9 35.1 48 46.7 16.5 21 34.3 52.6 42.9 76.5 4.9 13.4 7.2 16.7 14 20 6.4 3.2 13.3 3.2 19.9 0 7.2-3.4 12.5-13.7 11.2-21.8-.9-5.5-8.8-26-15.6-40.3-21.6-45.6-56.4-88.1-96.4-117.6-4.5-3.3-8.5-6.3-8.9-6.8-.5-.4 1-4.4 3.2-8.8 9.3-18.4 16.2-39.8 19.6-60.2 2.3-13.4 3-39.2 1.6-52.9-6.5-62.4-40.7-118.4-93.1-152.4-39.5-25.6-88.5-36.8-136-31.1zm57.3 45.3c42.4 9.1 78.3 33.3 101.9 68.5 20.1 30.1 30 67.6 26.9 102.3-3.2 35.4-14.9 64-37.2 90.8-38.7 46.3-99.5 67.3-158 54.5-61.3-13.3-110.6-62.5-123.8-123.3-9.3-42.9-.8-87.7 23.7-124.2 23.7-35.4 60.9-60.3 101.9-68.5 14.5-2.9 14.2-2.8 35.3-2.5 15.4.2 21.6.7 29.3 2.4z"/></svg>