<?xml version="1.0" standalone="no"?>
<!DOCTYPE svg PUBLIC "-//W3C//DTD SVG 20010904//EN"
 "http://www.w3.org/TR/2001/REC-SVG-20010904/DTD/svg10.dtd">
<svg version="1.0" xmlns="http://www.w3.org/2000/svg"
 width="950.000000pt" height="981.000000pt" viewBox="0 0 950.000000 981.000000"
 preserveAspectRatio="xMidYMid meet">
<metadata>
Created by potrace 1.16, written by Peter Selinger 2001-2019
</metadata>
<g transform="translate(0.000000,981.000000) scale(0.100000,-0.100000)"
fill="#000000" stroke="none">
<path d="M2876 9779 c-98 -34 -540 -318 -816 -525 -587 -440 -810 -785 -810
-1255 0 -224 43 -455 190 -1036 103 -401 185 -657 410 -1273 416 -1138 824
-1855 1481 -2605 236 -270 641 -664 974 -950 158 -135 1052 -750 1455 -1000
792 -491 1240 -634 1653 -525 229 60 488 219 842 515 299 250 621 539 638 571
56 108 61 283 12 449 -68 232 -260 550 -514 849 -339 401 -834 835 -1081 950
-163 76 -376 -24 -638 -299 -230 -241 -448 -590 -598 -956 -25 -63 -48 -116
-50 -118 -6 -7 -232 127 -399 236 -1091 717 -1951 1809 -2458 3123 -100 258
-236 711 -224 743 3 8 25 18 49 22 24 4 125 29 225 56 701 188 1160 432 1284
685 31 62 34 76 33 154 -1 83 -2 89 -81 275 -371 873 -652 1366 -955 1677
-213 218 -433 302 -622 237z"/>
<path d="M4446 9478 c-83 -5 -152 -10 -153 -12 -2 -2 23 -46 55 -98 63 -99
195 -332 232 -409 l23 -46 236 -6 c263 -7 365 -16 591 -53 1699 -277 3067
-1599 3405 -3289 44 -221 63 -373 77 -622 23 -418 -32 -914 -146 -1311 -20
-68 -36 -129 -36 -136 0 -7 54 -78 120 -157 66 -79 158 -197 203 -261 45 -64
85 -117 88 -117 17 -2 152 399 204 604 104 405 145 740 145 1180 0 546 -71
986 -240 1495 -289 868 -820 1630 -1540 2207 -163 131 -426 312 -595 409 -811
465 -1723 678 -2669 622z"/>
<path d="M692 7193 c-368 -618 -574 -1226 -657 -1943 -23 -190 -31 -627 -16
-830 47 -636 200 -1202 476 -1765 327 -667 806 -1246 1404 -1699 1097 -831
2530 -1143 3870 -844 144 32 358 89 406 108 l30 12 -90 42 c-123 58 -309 160
-497 273 -87 52 -161 92 -166 89 -4 -2 -88 -15 -187 -28 -156 -20 -224 -23
-505 -23 -331 0 -423 6 -670 46 -855 136 -1651 542 -2271 1159 -597 593 -987
1316 -1154 2139 -94 464 -105 977 -30 1463 50 322 151 676 278 972 l55 127
-63 247 c-35 136 -80 319 -100 407 -20 88 -38 161 -40 163 -1 2 -34 -50 -73
-115z"/>
</g>
</svg>
