<svg version="1.0" xmlns="http://www.w3.org/2000/svg" width="1306.667" height="1306.667" viewBox="0 0 980 980"><path d="M456 1.1C399.5 5 342.4 19.3 290 42.7 164.7 98.5 66.5 207.6 24.2 338-22.9 483.2-.1 642.1 85.7 766.7c22 32 50.7 64.5 79.8 90.2 115.8 102.5 271.5 144 423.5 113 147.1-30 273.9-128.1 340.5-263.4 67.3-136.7 67.3-296.6 0-433-23.8-48.1-51.3-86.8-89.5-125.9-48.8-49.9-104-86.9-167.5-112.4C604.5 8 529.2-3.9 456 1.1zm84.5 82.8c91.1 12.4 169 50 233.4 112.6 99.7 97 142.8 236.2 115.6 373-12.9 64.8-40.2 123-82.9 176.5-13 16.3-44.6 47.8-61.3 61.1-61.2 48.8-128.9 77.2-208.8 87.6-20 2.6-74 2.6-94 0-75.3-9.8-140.5-35.8-198-79C118.2 720.7 58.2 563.3 89.2 408c34-170.5 174.4-301.3 347.8-324 27.5-3.6 77.6-3.6 103.5-.1z"/><path d="M378.5 256.3c-11.4 3.8-20.2 11.2-25.1 21.2l-2.9 6v412l3.2 6.7c4 8.4 10.7 15.1 19.3 19.2 5.9 2.8 7.4 3.1 16.5 3.1 8.4 0 10.8-.4 15.4-2.4 5.9-2.7 262-195.6 270.7-204 9-8.6 13.5-21.8 11.5-34-1.4-8.5-5.5-16.5-11.5-22.2-8.9-8.5-265.1-201.4-270.8-203.9-6.5-2.9-20.1-3.7-26.3-1.7zm113.7 148.2c41.4 31.3 83.7 63.3 94 71 10.3 7.7 18.7 14.2 18.7 14.5 0 .3-8.4 6.8-18.7 14.5-10.3 7.7-52.6 39.7-94 71-41.4 31.4-75.7 57.2-76.2 57.3-.7.2-1-51.8-1-142.8 0-91 .3-143 1-142.8.5.1 34.8 25.9 76.2 57.3z"/></svg>