<?xml version="1.0" standalone="no"?>
<!DOCTYPE svg PUBLIC "-//W3C//DTD SVG 20010904//EN"
 "http://www.w3.org/TR/2001/REC-SVG-20010904/DTD/svg10.dtd">
<svg version="1.0" xmlns="http://www.w3.org/2000/svg"
 width="980.000000pt" height="934.000000pt" viewBox="0 0 980.000000 934.000000"
 preserveAspectRatio="xMidYMid meet">
<metadata>
Created by potrace 1.16, written by Peter Selinger 2001-2019
</metadata>
<g transform="translate(0.000000,934.000000) scale(0.100000,-0.100000)"
fill="#000000" stroke="none">
<path d="M4134 7800 c-536 -1111 -745 -1534 -759 -1540 -11 -4 -767 -111
-1680 -239 -913 -128 -1667 -235 -1675 -237 -9 -3 424 -443 1202 -1222 l1216
-1217 -289 -1650 c-159 -907 -288 -1657 -287 -1666 2 -12 388 187 1508 777
l1505 792 140 -74 c77 -40 754 -397 1505 -793 751 -395 1366 -716 1368 -712 2
5 -494 3199 -521 3358 -3 18 217 238 1210 1209 668 653 1210 1190 1206 1194
-4 4 -777 113 -1717 244 -941 130 -1710 237 -1711 239 -1 1 -331 686 -735
1522 -403 836 -736 1526 -739 1533 -5 8 -308 -610 -747 -1518z"/>
</g>
</svg>
