<?xml version="1.0" standalone="no"?>
<!DOCTYPE svg PUBLIC "-//W3C//DTD SVG 20010904//EN"
 "http://www.w3.org/TR/2001/REC-SVG-20010904/DTD/svg10.dtd">
<svg version="1.0" xmlns="http://www.w3.org/2000/svg"
 width="980.000000pt" height="980.000000pt" viewBox="0 0 980.000000 980.000000"
 preserveAspectRatio="xMidYMid meet">

<g transform="translate(0.000000,980.000000) scale(0.100000,-0.100000)"
fill="#000000" stroke="none">
<path d="M555 9780 c-60 -5 -134 -13 -163 -20 -116 -26 -267 -165 -347 -321
l-46 -90 6 -1647 c7 -1690 16 -2381 36 -2511 6 -41 20 -95 32 -120 32 -68 438
-479 2292 -2319 2148 -2132 2651 -2624 2746 -2688 58 -39 164 -56 314 -51 215
7 184 -12 563 356 463 450 3057 3073 3462 3502 235 249 275 297 312 375 30 63
33 79 36 189 5 135 -11 219 -53 291 -43 73 -204 243 -785 828 -630 634 -3064
3046 -3630 3597 -507 494 -595 576 -662 610 l-57 29 -1973 -2 c-1085 0 -2022
-4 -2083 -8z m4059 -487 c147 -143 4101 -4066 4462 -4427 293 -293 344 -352
344 -395 0 -54 -73 -131 -1344 -1421 -1937 -1965 -2655 -2680 -2691 -2680 -40
0 -213 170 -2818 2758 l-2157 2145 2 2028 c2 1115 6 2030 10 2034 35 36 487
46 2283 54 891 4 1660 8 1709 9 l90 2 110 -107z"/>
<path d="M2081 8505 c-240 -53 -446 -173 -578 -339 -314 -395 -285 -994 66
-1347 286 -287 768 -358 1157 -169 322 156 503 439 521 817 21 433 -175 787
-529 953 -183 86 -461 123 -637 85z m358 -394 c162 -56 340 -227 402 -390 34
-86 38 -256 10 -349 -47 -154 -185 -308 -350 -390 l-94 -47 -126 0 c-96 0
-139 5 -181 19 -82 28 -163 80 -239 155 -133 131 -171 213 -178 386 -9 191 26
297 138 419 180 196 406 268 618 197z"/>
<path d="M5234 6661 c-131 -21 -313 -104 -442 -201 -193 -145 -331 -352 -399
-596 -25 -91 -28 -114 -28 -274 0 -172 1 -177 33 -270 88 -254 255 -419 486
-482 94 -26 337 -35 443 -18 98 15 226 60 323 112 228 122 420 337 508 571 57
152 75 259 69 422 -4 122 -8 152 -35 235 -43 129 -92 210 -187 305 -88 88
-176 145 -275 176 -55 18 -95 22 -255 25 -104 1 -213 -1 -241 -5z m310 -378
c106 -31 224 -135 274 -240 24 -52 27 -69 27 -168 0 -96 -3 -118 -26 -173 -44
-102 -89 -169 -182 -268 -136 -144 -265 -220 -416 -246 -179 -31 -358 66 -443
240 -31 63 -33 73 -33 177 0 98 3 117 29 180 57 140 189 306 315 396 57 41
171 94 241 113 61 17 131 13 214 -11z"/>
<path d="M7225 4899 c-324 -49 -1016 -156 -1385 -215 -1490 -238 -2579 -417
-2609 -430 -139 -58 -169 -254 -53 -342 34 -25 42 -27 136 -26 130 1 597 71
2231 334 237 38 770 124 1185 190 l755 121 33 37 c49 55 72 106 72 156 0 58
-14 93 -53 135 -63 66 -101 71 -312 40z"/>
<path d="M5415 3939 c-269 -53 -575 -248 -707 -450 -146 -222 -214 -489 -188
-728 37 -340 216 -560 535 -657 82 -25 104 -28 245 -27 137 0 167 3 255 27
123 33 234 81 334 143 100 62 263 224 325 325 152 246 210 558 150 808 -22 92
-104 255 -159 318 -102 114 -242 196 -390 227 -95 20 -330 28 -400 14z m361
-411 c69 -36 150 -127 193 -218 33 -70 36 -81 34 -161 -3 -160 -67 -301 -203
-443 -158 -166 -313 -246 -481 -248 -86 0 -147 14 -207 48 -218 127 -280 397
-145 634 100 176 288 346 447 402 41 15 75 18 181 15 118 -2 135 -5 181 -29z"/>
</g>
</svg>
