<?xml version="1.0" standalone="no"?>
<!DOCTYPE svg PUBLIC "-//W3C//DTD SVG 20010904//EN"
 "http://www.w3.org/TR/2001/REC-SVG-20010904/DTD/svg10.dtd">
<svg version="1.0" xmlns="http://www.w3.org/2000/svg"
 width="370.000000pt" height="341.000000pt" viewBox="0 0 370.000000 341.000000"
 preserveAspectRatio="xMidYMid meet">

<g transform="translate(0.000000,341.000000) scale(0.100000,-0.100000)"
fill="#000000" stroke="none">
<path d="M2905 3399 c-337 -52 -580 -326 -590 -664 l-2 -89 -452 -207 c-248
-114 -465 -212 -481 -219 -29 -12 -32 -11 -78 32 -98 91 -232 164 -359 194
-89 22 -256 22 -347 0 -255 -60 -468 -253 -551 -496 -122 -357 39 -741 382
-914 158 -79 366 -101 537 -57 104 27 239 100 318 171 l63 57 484 -221 484
-222 2 -89 c9 -309 199 -552 505 -646 95 -29 252 -32 350 -6 313 82 523 348
523 662 0 308 -194 562 -503 656 -96 29 -262 32 -360 5 -128 -35 -288 -134
-354 -221 -15 -19 -32 -35 -39 -35 -7 0 -217 95 -467 210 -361 166 -455 213
-454 227 1 10 6 55 12 100 8 58 8 107 1 160 -5 43 -11 86 -12 96 -2 14 33 34
158 91 605 277 757 346 765 346 5 0 24 -18 42 -41 68 -85 218 -177 348 -214
97 -28 262 -26 360 4 310 95 503 346 503 656 0 262 -142 489 -378 605 -44 22
-106 46 -137 54 -77 20 -200 27 -273 15z m246 -373 c67 -31 131 -97 165 -169
36 -78 34 -190 -5 -272 -32 -69 -100 -137 -169 -168 -37 -17 -66 -22 -137 -22
-108 0 -159 20 -233 89 -111 104 -138 256 -68 394 24 48 92 118 137 143 89 47
218 50 310 5z m-2239 -965 c75 -29 155 -103 199 -183 33 -60 34 -67 34 -168 0
-99 -2 -109 -32 -166 -41 -78 -125 -155 -201 -185 -80 -32 -204 -31 -285 0
-76 30 -164 111 -202 188 -28 53 -30 67 -30 163 0 95 3 110 28 160 31 60 93
129 145 162 98 60 232 72 344 29z m2230 -1068 c68 -31 136 -98 169 -168 39
-82 41 -194 5 -272 -34 -71 -97 -137 -165 -170 -49 -24 -68 -28 -146 -27 -108
0 -160 20 -234 89 -130 121 -141 325 -25 454 81 91 156 123 274 118 48 -2 92
-11 122 -24z"/>
</g>
</svg>
