<svg version="1.0" xmlns="http://www.w3.org/2000/svg" width="493.333" height="454.667" viewBox="0 0 370 341"><path d="M290.5 1.1c-33.7 5.2-58 32.6-59 66.4l-.2 8.9-45.2 20.7c-24.8 11.4-46.5 21.2-48.1 21.9-2.9 1.2-3.2 1.1-7.8-3.2-9.8-9.1-23.2-16.4-35.9-19.4-8.9-2.2-25.6-2.2-34.7 0-25.5 6-46.8 25.3-55.1 49.6-12.2 35.7 3.9 74.1 38.2 91.4 15.8 7.9 36.6 10.1 53.7 5.7 10.4-2.7 23.9-10 31.8-17.1l6.3-5.7 48.4 22.1 48.4 22.2.2 8.9c.9 30.9 19.9 55.2 50.5 64.6 9.5 2.9 25.2 3.2 35 .6 31.3-8.2 52.3-34.8 52.3-66.2 0-30.8-19.4-56.2-50.3-65.6-9.6-2.9-26.2-3.2-36-.5-12.8 3.5-28.8 13.4-35.4 22.1-1.5 1.9-3.2 3.5-3.9 3.5-.7 0-21.7-9.5-46.7-21-36.1-16.6-45.5-21.3-45.4-22.7.1-1 .6-5.5 1.2-10 .8-5.8.8-10.7.1-16-.5-4.3-1.1-8.6-1.2-9.6-.2-1.4 3.3-3.4 15.8-9.1C228 115.9 243.2 109 244 109c.5 0 2.4 1.8 4.2 4.1 6.8 8.5 21.8 17.7 34.8 21.4 9.7 2.8 26.2 2.6 36-.4 31-9.5 50.3-34.6 50.3-65.6 0-26.2-14.2-48.9-37.8-60.5-4.4-2.2-10.6-4.6-13.7-5.4-7.7-2-20-2.7-27.3-1.5zm24.6 37.3c6.7 3.1 13.1 9.7 16.5 16.9 3.6 7.8 3.4 19-.5 27.2-3.2 6.9-10 13.7-16.9 16.8-3.7 1.7-6.6 2.2-13.7 2.2-10.8 0-15.9-2-23.3-8.9-11.1-10.4-13.8-25.6-6.8-39.4 2.4-4.8 9.2-11.8 13.7-14.3 8.9-4.7 21.8-5 31-.5zM91.2 134.9c7.5 2.9 15.5 10.3 19.9 18.3 3.3 6 3.4 6.7 3.4 16.8 0 9.9-.2 10.9-3.2 16.6-4.1 7.8-12.5 15.5-20.1 18.5-8 3.2-20.4 3.1-28.5 0-7.6-3-16.4-11.1-20.2-18.8-2.8-5.3-3-6.7-3-16.3 0-9.5.3-11 2.8-16 3.1-6 9.3-12.9 14.5-16.2 9.8-6 23.2-7.2 34.4-2.9zm223 106.8c6.8 3.1 13.6 9.8 16.9 16.8 3.9 8.2 4.1 19.4.5 27.2-3.4 7.1-9.7 13.7-16.5 17-4.9 2.4-6.8 2.8-14.6 2.7-10.8 0-16-2-23.4-8.9-13-12.1-14.1-32.5-2.5-45.4 8.1-9.1 15.6-12.3 27.4-11.8 4.8.2 9.2 1.1 12.2 2.4z"/></svg>