<?xml version="1.0" standalone="no"?>
<!DOCTYPE svg PUBLIC "-//W3C//DTD SVG 20010904//EN"
 "http://www.w3.org/TR/2001/REC-SVG-20010904/DTD/svg10.dtd">
<svg version="1.0" xmlns="http://www.w3.org/2000/svg"
 width="2150.000000pt" height="1222.000000pt" viewBox="0 0 2150.000000 1222.000000"
 preserveAspectRatio="xMidYMid meet">
<metadata>
Created by potrace 1.16, written by Peter Selinger 2001-2019
</metadata>
<g transform="translate(0.000000,1222.000000) scale(0.100000,-0.100000)"
fill="#000000" stroke="none">
<path d="M18530 12214 c-275 -51 -471 -148 -653 -323 -218 -210 -337 -494
-337 -805 0 -317 111 -591 324 -801 171 -168 398 -279 645 -316 133 -19 384
-7 504 24 352 92 656 350 783 662 69 168 78 219 78 440 1 188 -1 206 -26 298
-111 396 -410 687 -815 794 -86 22 -121 26 -288 29 -104 1 -201 0 -215 -2z
m265 -544 c262 -37 455 -283 455 -580 0 -266 -150 -488 -379 -561 -93 -30
-232 -30 -321 1 -236 79 -381 286 -383 545 -2 305 185 549 456 594 72 12 92
12 172 1z"/>
<path d="M6693 10909 c-639 -40 -1219 -368 -1442 -815 -80 -160 -115 -307
-116 -489 l0 -120 596 -3 596 -2 6 60 c20 227 259 412 552 427 302 16 514
-113 613 -375 23 -60 26 -82 26 -207 1 -157 -13 -225 -66 -335 -42 -88 -159
-204 -249 -248 -126 -61 -157 -65 -561 -69 l-368 -5 0 -454 0 -454 308 0 c426
0 554 -18 705 -97 214 -113 317 -313 317 -617 0 -198 -45 -313 -175 -443 -138
-138 -288 -195 -515 -195 -226 1 -414 84 -545 241 -69 84 -124 225 -125 319
l0 32 -600 0 -600 0 0 -112 c0 -392 151 -730 427 -961 307 -256 723 -418 1173
-458 163 -14 466 -7 635 16 665 89 1195 419 1414 880 77 160 114 305 131 513
38 441 -111 825 -420 1085 -108 92 -186 141 -327 209 l-124 61 96 51 c275 146
507 392 615 653 66 159 74 206 74 443 0 186 -3 229 -23 320 -76 353 -257 619
-560 822 -298 199 -647 302 -1114 328 -188 10 -178 11 -354 -1z"/>
<path d="M11250 10913 c-608 -26 -1102 -238 -1487 -636 -296 -307 -467 -672
-538 -1150 -25 -162 -35 -446 -35 -972 1 -730 15 -943 85 -1220 140 -557 470
-984 945 -1221 371 -186 864 -242 1329 -153 609 118 1125 575 1314 1164 71
221 82 305 82 625 0 229 -4 307 -18 395 -39 236 -93 407 -188 600 -121 247
-283 440 -476 568 -233 156 -468 220 -803 219 -403 0 -737 -111 -957 -318 -42
-40 -53 -46 -57 -32 -9 35 14 299 34 399 82 400 337 676 694 750 105 22 318
25 474 8 114 -12 319 -56 487 -104 66 -18 122 -32 124 -30 5 5 201 865 201
881 0 29 -417 159 -623 194 -107 18 -420 42 -492 38 -16 -1 -59 -3 -95 -5z
m53 -2751 c262 -95 427 -416 427 -832 0 -360 -170 -705 -401 -814 -208 -99
-453 -51 -621 121 -104 107 -174 241 -223 425 -45 169 -56 276 -62 584 l-6
290 59 52 c103 92 285 168 459 191 116 16 300 7 368 -17z"/>
<path d="M14955 10914 c-503 -29 -873 -187 -1176 -502 -286 -296 -433 -646
-510 -1212 -17 -120 -24 -1636 -10 -1830 57 -745 308 -1247 781 -1565 302
-202 676 -297 1120 -282 339 12 608 82 862 224 182 103 383 285 506 458 132
186 251 470 306 732 59 282 59 276 63 1208 5 938 1 1020 -53 1298 -103 529
-349 930 -724 1180 -233 154 -486 245 -770 276 -113 12 -311 20 -395 15z m226
-954 c93 -17 189 -72 260 -148 102 -107 160 -235 198 -436 39 -203 43 -313 39
-1241 -5 -957 -5 -969 -60 -1180 -26 -103 -94 -246 -147 -312 -88 -109 -228
-174 -381 -176 -161 -2 -290 51 -389 159 -98 108 -156 243 -192 453 -36 212
-41 371 -36 1241 4 903 6 933 62 1156 66 262 210 432 408 480 65 15 167 17
238 4z"/>
<path d="M3765 9196 c-2231 -806 -3576 -1951 -3749 -3195 -20 -143 -21 -431
-1 -570 134 -940 907 -1827 2250 -2581 1690 -949 4217 -1602 6925 -1789 157
-11 331 -23 388 -27 l102 -6 0 -407 c0 -386 1 -408 21 -451 59 -132 222 -203
355 -156 54 19 2281 1241 2324 1275 19 15 49 50 65 76 28 45 30 55 30 144 0
110 -15 151 -75 211 -47 46 -2305 1284 -2373 1301 -123 30 -263 -36 -321 -153
l-26 -52 0 -393 0 -393 -52 0 c-152 0 -928 67 -1338 116 -1631 192 -3143 568
-4345 1080 -281 120 -742 349 -965 480 -1027 602 -1625 1283 -1771 2014 -31
155 -34 443 -5 595 79 422 288 793 661 1174 498 509 1189 936 2140 1322 200
82 257 117 281 175 18 43 18 125 0 167 -17 43 -85 101 -135 115 -87 27 -141
17 -386 -72z"/>
<path d="M17805 8956 c-128 -59 -173 -202 -98 -311 25 -36 58 -55 298 -175
889 -445 1483 -892 1876 -1412 597 -792 581 -1637 -46 -2424 -162 -203 -449
-470 -715 -668 -1140 -843 -3053 -1490 -5280 -1786 -206 -27 -243 -36 -323
-78 -300 -155 -358 -565 -113 -800 96 -92 214 -142 336 -142 59 0 399 42 691
85 2318 343 4296 1030 5560 1931 439 313 776 635 1030 984 468 641 598 1346
374 2025 -272 826 -1046 1600 -2265 2262 -292 159 -714 358 -1026 484 -145 59
-215 65 -299 25z"/>
</g>
</svg>
