<?xml version="1.0" standalone="no"?>
<!DOCTYPE svg PUBLIC "-//W3C//DTD SVG 20010904//EN"
 "http://www.w3.org/TR/2001/REC-SVG-20010904/DTD/svg10.dtd">
<svg version="1.0" xmlns="http://www.w3.org/2000/svg"
 width="641.000000pt" height="448.000000pt" viewBox="0 0 641.000000 448.000000"
 preserveAspectRatio="xMidYMid meet">

<g transform="translate(0.000000,448.000000) scale(0.100000,-0.100000)"
fill="#000000" stroke="none">
<path d="M2590 4473 c-834 -12 -1569 -59 -1830 -115 -164 -35 -307 -115 -421
-234 -149 -158 -204 -298 -254 -648 -134 -937 -77 -2516 105 -2904 103 -221
307 -384 552 -442 543 -128 2942 -170 4323 -75 452 32 649 65 791 136 187 92
335 264 402 464 61 180 108 565 133 1080 13 274 7 1026 -11 1260 -27 371 -74
686 -124 831 -97 287 -332 480 -651 538 -467 83 -1723 129 -3015 109z m1628
-2231 c2 -8 -1625 -952 -1641 -952 -4 0 -7 429 -7 954 l0 954 822 -474 c453
-260 824 -477 826 -482z"/>
</g>
</svg>
