<svg version="1.0" xmlns="http://www.w3.org/2000/svg" width="854.667" height="597.333" viewBox="0 0 641 448"><path d="M259 .7C175.6 1.9 102.1 6.6 76 12.2c-16.4 3.5-30.7 11.5-42.1 23.4C19 51.4 13.5 65.4 8.5 100.4-4.9 194.1.8 352 19 390.8c10.3 22.1 30.7 38.4 55.2 44.2 54.3 12.8 294.2 17 432.3 7.5 45.2-3.2 64.9-6.5 79.1-13.6 18.7-9.2 33.5-26.4 40.2-46.4 6.1-18 10.8-56.5 13.3-108 1.3-27.4.7-102.6-1.1-126-2.7-37.1-7.4-68.6-12.4-83.1-9.7-28.7-33.2-48-65.1-53.8C513.8 3.3 388.2-1.3 259 .7zm162.8 223.1c.2.8-162.5 95.2-164.1 95.2-.4 0-.7-42.9-.7-95.4v-95.4l82.2 47.4c45.3 26 82.4 47.7 82.6 48.2z"/></svg>